<svg width="278" height="120" viewBox="0 0 278 120" fill="none" xmlns="http://www.w3.org/2000/svg">
<rect x="0.5" y="0.5" width="277" height="119" rx="11.5" fill="white"/>
<rect x="0.5" y="0.5" width="277" height="119" rx="11.5" stroke="#E4E9F0"/>
<path d="M24 19.75L25.1084 22.725L28.0834 23.8333L25.1084 24.9417L24 27.9167L22.8917 24.9417L19.9167 23.8333L22.8917 22.725L24 19.75Z" stroke="#6A4BE0" stroke-width="1.16667" stroke-linecap="round" stroke-linejoin="round"/>
<path d="M37.24 29L40.312 20.48H41.956L45.028 29H43.648L42.868 26.78H39.388L38.62 29H37.24ZM39.796 25.604H42.472L41.128 21.716L39.796 25.604ZM46.0476 29V20.48H47.3436V29H46.0476ZM54.4649 29.144C53.9209 29.144 53.4449 29.008 53.0369 28.736C52.6369 28.464 52.3289 28.08 52.1129 27.584C51.9049 27.08 51.8009 26.488 51.8009 25.808C51.8009 25.128 51.9089 24.54 52.1249 24.044C52.3409 23.54 52.6489 23.152 53.0489 22.88C53.4489 22.608 53.9209 22.472 54.4649 22.472C54.9049 22.472 55.2969 22.564 55.6409 22.748C55.9849 22.932 56.2449 23.188 56.4209 23.516V20.48H57.6929V29H56.5049L56.4689 28.04C56.2929 28.384 56.0249 28.656 55.6649 28.856C55.3129 29.048 54.9129 29.144 54.4649 29.144ZM54.8009 28.04C55.1449 28.04 55.4369 27.952 55.6769 27.776C55.9169 27.6 56.1009 27.344 56.2289 27.008C56.3569 26.672 56.4209 26.272 56.4209 25.808C56.4209 25.328 56.3569 24.924 56.2289 24.596C56.1009 24.26 55.9169 24.008 55.6769 23.84C55.4369 23.664 55.1449 23.576 54.8009 23.576C54.2889 23.576 53.8809 23.776 53.5769 24.176C53.2729 24.568 53.1209 25.112 53.1209 25.808C53.1209 26.496 53.2729 27.04 53.5769 27.44C53.8809 27.84 54.2889 28.04 54.8009 28.04ZM59.6031 29V22.616H60.7671L60.8151 24.308L60.7071 24.272C60.7951 23.696 60.9711 23.276 61.2351 23.012C61.5071 22.748 61.8711 22.616 62.3271 22.616H62.9391V23.756H62.3271C62.0071 23.756 61.7391 23.808 61.5231 23.912C61.3071 24.016 61.1431 24.176 61.0311 24.392C60.9271 24.608 60.8751 24.888 60.8751 25.232V29H59.6031ZM65.6568 29.144C64.9928 29.144 64.4608 28.992 64.0608 28.688C63.6688 28.384 63.4728 27.956 63.4728 27.404C63.4728 26.852 63.6368 26.424 63.9648 26.12C64.3008 25.808 64.8168 25.584 65.5128 25.448L67.7088 25.028C67.7088 24.532 67.5928 24.164 67.3608 23.924C67.1288 23.676 66.7848 23.552 66.3288 23.552C65.9208 23.552 65.6008 23.644 65.3688 23.828C65.1368 24.004 64.9768 24.268 64.8888 24.62L63.5808 24.536C63.7008 23.896 63.9967 23.392 64.4688 23.024C64.9488 22.656 65.5688 22.472 66.3288 22.472C67.1928 22.472 67.8488 22.704 68.2968 23.168C68.7528 23.624 68.9808 24.268 68.9808 25.1V27.584C68.9808 27.736 69.0048 27.844 69.0528 27.908C69.1088 27.964 69.1968 27.992 69.3168 27.992H69.5448V29C69.5048 29.008 69.4408 29.016 69.3528 29.024C69.2648 29.032 69.1728 29.036 69.0768 29.036C68.8048 29.036 68.5688 28.992 68.3688 28.904C68.1768 28.816 68.0328 28.672 67.9368 28.472C67.8408 28.264 67.7928 27.988 67.7928 27.644L67.9248 27.704C67.8608 27.984 67.7208 28.232 67.5048 28.448C67.2968 28.664 67.0288 28.836 66.7008 28.964C66.3808 29.084 66.0328 29.144 65.6568 29.144ZM65.8608 28.136C66.2448 28.136 66.5728 28.064 66.8448 27.92C67.1168 27.768 67.3288 27.56 67.4808 27.296C67.6328 27.032 67.7088 26.732 67.7088 26.396V25.988L65.8368 26.348C65.4528 26.42 65.1808 26.536 65.0208 26.696C64.8688 26.848 64.7928 27.044 64.7928 27.284C64.7928 27.556 64.8848 27.768 65.0688 27.92C65.2608 28.064 65.5248 28.136 65.8608 28.136ZM70.9386 29V22.208C70.9386 21.68 71.0866 21.26 71.3826 20.948C71.6786 20.636 72.1426 20.48 72.7746 20.48H73.9026V21.524H72.9426C72.6946 21.524 72.5106 21.592 72.3906 21.728C72.2706 21.856 72.2106 22.04 72.2106 22.28V29H70.9386ZM70.0506 23.732V22.7H73.8066V23.732H70.0506ZM77.2503 29C76.6423 29 76.1943 28.86 75.9063 28.58C75.6183 28.3 75.4743 27.864 75.4743 27.272V21.116H76.7463V27.176C76.7463 27.472 76.8103 27.676 76.9383 27.788C77.0663 27.9 77.2623 27.956 77.5263 27.956H78.4383V29H77.2503ZM74.5023 23.66V22.616H78.4383V23.66H74.5023ZM82.2462 26.12V24.608H83.7942V26.12H82.2462ZM88.2468 29V20.48H93.7788V21.668H88.8588L89.5428 20.96V24.872L88.8588 24.26H93.5628V25.412H88.8588L89.5428 24.8V29H88.2468ZM97.5397 29.144C96.9317 29.144 96.3997 29.008 95.9437 28.736C95.4877 28.464 95.1357 28.076 94.8877 27.572C94.6397 27.068 94.5157 26.48 94.5157 25.808C94.5157 25.128 94.6397 24.54 94.8877 24.044C95.1357 23.548 95.4877 23.164 95.9437 22.892C96.3997 22.612 96.9317 22.472 97.5397 22.472C98.1477 22.472 98.6797 22.612 99.1357 22.892C99.5917 23.164 99.9437 23.548 100.192 24.044C100.44 24.54 100.564 25.128 100.564 25.808C100.564 26.48 100.44 27.068 100.192 27.572C99.9437 28.076 99.5917 28.464 99.1357 28.736C98.6797 29.008 98.1477 29.144 97.5397 29.144ZM97.5397 28.04C98.0837 28.04 98.5037 27.844 98.7997 27.452C99.0957 27.052 99.2437 26.504 99.2437 25.808C99.2437 25.112 99.0957 24.568 98.7997 24.176C98.5037 23.776 98.0837 23.576 97.5397 23.576C97.0037 23.576 96.5837 23.776 96.2797 24.176C95.9837 24.568 95.8357 25.112 95.8357 25.808C95.8357 26.504 95.9837 27.052 96.2797 27.452C96.5837 27.844 97.0037 28.04 97.5397 28.04ZM103.3 29C102.884 29 102.548 28.892 102.292 28.676C102.036 28.46 101.908 28.116 101.908 27.644V20.48H103.18V27.524C103.18 27.668 103.216 27.776 103.288 27.848C103.368 27.92 103.48 27.956 103.624 27.956H104.128V29H103.3ZM106.569 29C106.153 29 105.817 28.892 105.561 28.676C105.305 28.46 105.177 28.116 105.177 27.644V20.48H106.449V27.524C106.449 27.668 106.485 27.776 106.557 27.848C106.637 27.92 106.749 27.956 106.893 27.956H107.397V29H106.569ZM111.11 29.144C110.502 29.144 109.97 29.008 109.514 28.736C109.058 28.464 108.706 28.076 108.458 27.572C108.21 27.068 108.086 26.48 108.086 25.808C108.086 25.128 108.21 24.54 108.458 24.044C108.706 23.548 109.058 23.164 109.514 22.892C109.97 22.612 110.502 22.472 111.11 22.472C111.718 22.472 112.25 22.612 112.706 22.892C113.162 23.164 113.514 23.548 113.762 24.044C114.01 24.54 114.134 25.128 114.134 25.808C114.134 26.48 114.01 27.068 113.762 27.572C113.514 28.076 113.162 28.464 112.706 28.736C112.25 29.008 111.718 29.144 111.11 29.144ZM111.11 28.04C111.654 28.04 112.074 27.844 112.37 27.452C112.666 27.052 112.814 26.504 112.814 25.808C112.814 25.112 112.666 24.568 112.37 24.176C112.074 23.776 111.654 23.576 111.11 23.576C110.574 23.576 110.154 23.776 109.85 24.176C109.554 24.568 109.406 25.112 109.406 25.808C109.406 26.504 109.554 27.052 109.85 27.452C110.154 27.844 110.574 28.04 111.11 28.04ZM116.528 29L114.584 22.616H115.916L117.284 27.608L118.688 22.616H119.888L121.292 27.608L122.672 22.616H124.004L122.06 29H120.632L119.288 24.44L117.944 29H116.528ZM124.656 26.06V24.944H128.676V26.06H124.656ZM132.168 29.144C131.528 29.144 131.016 28.932 130.632 28.508C130.256 28.076 130.068 27.48 130.068 26.72V22.616H131.34V26.396C131.34 26.972 131.44 27.396 131.64 27.668C131.84 27.94 132.144 28.076 132.552 28.076C133.016 28.076 133.376 27.928 133.632 27.632C133.896 27.328 134.028 26.904 134.028 26.36V22.616H135.3V29H134.112L134.088 27.332L134.268 27.404C134.156 27.964 133.92 28.396 133.56 28.7C133.2 28.996 132.736 29.144 132.168 29.144ZM137.099 30.8V22.616H138.299L138.335 23.984L138.191 23.912C138.351 23.44 138.615 23.084 138.983 22.844C139.351 22.596 139.775 22.472 140.255 22.472C140.879 22.472 141.391 22.628 141.791 22.94C142.199 23.244 142.499 23.648 142.691 24.152C142.891 24.656 142.991 25.208 142.991 25.808C142.991 26.408 142.891 26.96 142.691 27.464C142.499 27.968 142.199 28.376 141.791 28.688C141.391 28.992 140.879 29.144 140.255 29.144C139.935 29.144 139.635 29.088 139.355 28.976C139.075 28.864 138.835 28.708 138.635 28.508C138.443 28.3 138.307 28.056 138.227 27.776L138.371 27.632V30.8H137.099ZM140.027 28.04C140.539 28.04 140.939 27.844 141.227 27.452C141.523 27.06 141.671 26.512 141.671 25.808C141.671 25.104 141.523 24.556 141.227 24.164C140.939 23.772 140.539 23.576 140.027 23.576C139.691 23.576 139.399 23.66 139.151 23.828C138.903 23.988 138.711 24.236 138.575 24.572C138.439 24.908 138.371 25.32 138.371 25.808C138.371 26.296 138.435 26.708 138.563 27.044C138.699 27.38 138.891 27.632 139.139 27.8C139.395 27.96 139.691 28.04 140.027 28.04ZM149.946 29.144C149.322 29.144 148.782 29.008 148.326 28.736C147.878 28.464 147.53 28.076 147.282 27.572C147.042 27.068 146.922 26.48 146.922 25.808C146.922 25.136 147.042 24.552 147.282 24.056C147.53 23.552 147.878 23.164 148.326 22.892C148.774 22.612 149.302 22.472 149.91 22.472C150.486 22.472 150.994 22.608 151.434 22.88C151.874 23.144 152.214 23.528 152.454 24.032C152.702 24.536 152.826 25.144 152.826 25.856V26.18H148.242C148.274 26.804 148.438 27.272 148.734 27.584C149.038 27.896 149.446 28.052 149.958 28.052C150.334 28.052 150.646 27.964 150.894 27.788C151.142 27.612 151.314 27.376 151.41 27.08L152.73 27.164C152.562 27.756 152.23 28.236 151.734 28.604C151.246 28.964 150.65 29.144 149.946 29.144ZM148.242 25.22H151.482C151.442 24.652 151.278 24.232 150.99 23.96C150.71 23.688 150.35 23.552 149.91 23.552C149.454 23.552 149.078 23.696 148.782 23.984C148.494 24.264 148.314 24.676 148.242 25.22ZM154.115 29V22.616H155.279L155.315 24.2L155.171 24.152C155.243 23.8 155.367 23.5 155.543 23.252C155.727 23.004 155.951 22.812 156.215 22.676C156.479 22.54 156.767 22.472 157.079 22.472C157.623 22.472 158.067 22.628 158.411 22.94C158.755 23.244 158.971 23.664 159.059 24.2H158.855C158.927 23.824 159.047 23.512 159.215 23.264C159.391 23.008 159.615 22.812 159.887 22.676C160.159 22.54 160.467 22.472 160.811 22.472C161.259 22.472 161.639 22.568 161.951 22.76C162.271 22.944 162.511 23.216 162.671 23.576C162.839 23.936 162.923 24.376 162.923 24.896V29H161.651V25.208C161.651 24.656 161.551 24.24 161.351 23.96C161.151 23.68 160.847 23.54 160.439 23.54C160.175 23.54 159.943 23.608 159.743 23.744C159.543 23.88 159.387 24.076 159.275 24.332C159.171 24.588 159.119 24.896 159.119 25.256V29H157.907V25.256C157.907 24.712 157.815 24.292 157.631 23.996C157.455 23.692 157.151 23.54 156.719 23.54C156.447 23.54 156.211 23.608 156.011 23.744C155.819 23.88 155.667 24.08 155.555 24.344C155.443 24.6 155.387 24.904 155.387 25.256V29H154.115ZM166.391 29.144C165.727 29.144 165.195 28.992 164.795 28.688C164.403 28.384 164.207 27.956 164.207 27.404C164.207 26.852 164.371 26.424 164.699 26.12C165.035 25.808 165.551 25.584 166.247 25.448L168.443 25.028C168.443 24.532 168.327 24.164 168.095 23.924C167.863 23.676 167.519 23.552 167.063 23.552C166.655 23.552 166.335 23.644 166.103 23.828C165.871 24.004 165.711 24.268 165.623 24.62L164.315 24.536C164.435 23.896 164.731 23.392 165.203 23.024C165.683 22.656 166.303 22.472 167.063 22.472C167.927 22.472 168.583 22.704 169.031 23.168C169.487 23.624 169.715 24.268 169.715 25.1V27.584C169.715 27.736 169.739 27.844 169.787 27.908C169.843 27.964 169.931 27.992 170.051 27.992H170.279V29C170.239 29.008 170.175 29.016 170.087 29.024C169.999 29.032 169.907 29.036 169.811 29.036C169.539 29.036 169.303 28.992 169.103 28.904C168.911 28.816 168.767 28.672 168.671 28.472C168.575 28.264 168.527 27.988 168.527 27.644L168.659 27.704C168.595 27.984 168.455 28.232 168.239 28.448C168.031 28.664 167.763 28.836 167.435 28.964C167.115 29.084 166.767 29.144 166.391 29.144ZM166.595 28.136C166.979 28.136 167.307 28.064 167.579 27.92C167.851 27.768 168.063 27.56 168.215 27.296C168.367 27.032 168.443 26.732 168.443 26.396V25.988L166.571 26.348C166.187 26.42 165.915 26.536 165.755 26.696C165.603 26.848 165.527 27.044 165.527 27.284C165.527 27.556 165.619 27.768 165.803 27.92C165.995 28.064 166.259 28.136 166.595 28.136ZM171.295 29V22.616H172.567V29H171.295ZM171.271 21.692V20.42H172.591V21.692H171.271ZM175.663 29C175.247 29 174.911 28.892 174.655 28.676C174.399 28.46 174.271 28.116 174.271 27.644V20.48H175.543V27.524C175.543 27.668 175.579 27.776 175.651 27.848C175.731 27.92 175.843 27.956 175.987 27.956H176.491V29H175.663Z" fill="#6A4BE0"/>
<path d="M18.196 58V48.77H19.314V53.255L18.742 52.813H24.527L23.955 53.255V48.77H25.073V58H23.955V53.463L24.527 53.905H18.742L19.314 53.463V58H18.196ZM27.0537 58V51.11H28.1457V58H27.0537ZM27.0277 50.031V48.757H28.1717V50.031H27.0277ZM36.8055 58.208C36.0948 58.208 35.4752 58.0737 34.9465 57.805C34.4178 57.5363 33.9975 57.168 33.6855 56.7C33.3822 56.2233 33.2045 55.673 33.1525 55.049L34.3225 54.971C34.3832 55.4303 34.5175 55.8203 34.7255 56.141C34.9335 56.4617 35.2108 56.7043 35.5575 56.869C35.9128 57.0337 36.3375 57.116 36.8315 57.116C37.2648 57.116 37.6332 57.0597 37.9365 56.947C38.2398 56.8343 38.4695 56.6697 38.6255 56.453C38.7902 56.2363 38.8725 55.972 38.8725 55.66C38.8725 55.374 38.8032 55.1227 38.6645 54.906C38.5345 54.6807 38.2788 54.477 37.8975 54.295C37.5248 54.1043 36.9702 53.918 36.2335 53.736C35.5228 53.554 34.9552 53.3547 34.5305 53.138C34.1145 52.9213 33.8112 52.657 33.6205 52.345C33.4385 52.033 33.3475 51.6473 33.3475 51.188C33.3475 50.668 33.4688 50.213 33.7115 49.823C33.9628 49.4243 34.3182 49.1167 34.7775 48.9C35.2368 48.6747 35.7828 48.562 36.4155 48.562C37.0915 48.562 37.6722 48.692 38.1575 48.952C38.6428 49.2033 39.0285 49.55 39.3145 49.992C39.6005 50.434 39.7782 50.9367 39.8475 51.5L38.6775 51.578C38.6255 51.2053 38.5042 50.876 38.3135 50.59C38.1315 50.2953 37.8802 50.0657 37.5595 49.901C37.2388 49.7363 36.8488 49.654 36.3895 49.654C35.8175 49.654 35.3625 49.7927 35.0245 50.07C34.6865 50.3387 34.5175 50.694 34.5175 51.136C34.5175 51.422 34.5825 51.6603 34.7125 51.851C34.8512 52.033 35.0938 52.1977 35.4405 52.345C35.7872 52.4837 36.2855 52.6353 36.9355 52.8C37.7068 52.9907 38.3178 53.2203 38.7685 53.489C39.2278 53.749 39.5528 54.0523 39.7435 54.399C39.9428 54.7457 40.0425 55.14 40.0425 55.582C40.0425 56.1193 39.9038 56.5873 39.6265 56.986C39.3492 57.376 38.9678 57.6793 38.4825 57.896C37.9972 58.104 37.4382 58.208 36.8055 58.208ZM43.7789 58.156C43.0682 58.156 42.5005 57.9913 42.0759 57.662C41.6599 57.3327 41.4519 56.8733 41.4519 56.284C41.4519 55.6947 41.6252 55.231 41.9719 54.893C42.3185 54.555 42.8689 54.3167 43.6229 54.178L46.0669 53.723C46.0669 53.1423 45.9282 52.709 45.6509 52.423C45.3822 52.137 44.9749 51.994 44.4289 51.994C43.9522 51.994 43.5752 52.1023 43.2979 52.319C43.0205 52.527 42.8299 52.8303 42.7259 53.229L41.5689 53.138C41.6989 52.488 42.0109 51.9637 42.5049 51.565C43.0075 51.1577 43.6489 50.954 44.4289 50.954C45.3129 50.954 45.9889 51.2053 46.4569 51.708C46.9249 52.202 47.1589 52.8867 47.1589 53.762V56.609C47.1589 56.765 47.1849 56.8777 47.2369 56.947C47.2975 57.0077 47.3929 57.038 47.5229 57.038H47.7959V58C47.7612 58.0087 47.7049 58.013 47.6269 58.013C47.5489 58.0217 47.4665 58.026 47.3799 58.026C47.0679 58.026 46.8122 57.9783 46.6129 57.883C46.4222 57.779 46.2835 57.623 46.1969 57.415C46.1102 57.1983 46.0669 56.9167 46.0669 56.57L46.1969 56.596C46.1362 56.8907 45.9889 57.1593 45.7549 57.402C45.5209 57.636 45.2305 57.8223 44.8839 57.961C44.5372 58.091 44.1689 58.156 43.7789 58.156ZM43.8829 57.194C44.3422 57.194 44.7322 57.1073 45.0529 56.934C45.3822 56.752 45.6335 56.5093 45.8069 56.206C45.9802 55.894 46.0669 55.5473 46.0669 55.166V54.672L43.8309 55.088C43.3629 55.1747 43.0379 55.309 42.8559 55.491C42.6825 55.6643 42.5959 55.894 42.5959 56.18C42.5959 56.5007 42.7085 56.752 42.9339 56.934C43.1679 57.1073 43.4842 57.194 43.8829 57.194ZM49.0293 58V51.11H49.9913L50.0433 52.852L49.9393 52.813C50.0259 52.2237 50.2123 51.7947 50.4983 51.526C50.7929 51.2487 51.1829 51.11 51.6683 51.11H52.3443V52.15H51.6813C51.3346 52.15 51.0443 52.215 50.8103 52.345C50.5849 52.4663 50.4116 52.6527 50.2903 52.904C50.1776 53.1467 50.1213 53.4587 50.1213 53.84V58H49.0293ZM55.2935 58.156C54.5829 58.156 54.0152 57.9913 53.5905 57.662C53.1745 57.3327 52.9665 56.8733 52.9665 56.284C52.9665 55.6947 53.1399 55.231 53.4865 54.893C53.8332 54.555 54.3835 54.3167 55.1375 54.178L57.5815 53.723C57.5815 53.1423 57.4429 52.709 57.1655 52.423C56.8969 52.137 56.4895 51.994 55.9435 51.994C55.4669 51.994 55.0899 52.1023 54.8125 52.319C54.5352 52.527 54.3445 52.8303 54.2405 53.229L53.0835 53.138C53.2135 52.488 53.5255 51.9637 54.0195 51.565C54.5222 51.1577 55.1635 50.954 55.9435 50.954C56.8275 50.954 57.5035 51.2053 57.9715 51.708C58.4395 52.202 58.6735 52.8867 58.6735 53.762V56.609C58.6735 56.765 58.6995 56.8777 58.7515 56.947C58.8122 57.0077 58.9075 57.038 59.0375 57.038H59.3105V58C59.2759 58.0087 59.2195 58.013 59.1415 58.013C59.0635 58.0217 58.9812 58.026 58.8945 58.026C58.5825 58.026 58.3269 57.9783 58.1275 57.883C57.9369 57.779 57.7982 57.623 57.7115 57.415C57.6249 57.1983 57.5815 56.9167 57.5815 56.57L57.7115 56.596C57.6509 56.8907 57.5035 57.1593 57.2695 57.402C57.0355 57.636 56.7452 57.8223 56.3985 57.961C56.0519 58.091 55.6835 58.156 55.2935 58.156ZM55.3975 57.194C55.8569 57.194 56.2469 57.1073 56.5675 56.934C56.8969 56.752 57.1482 56.5093 57.3215 56.206C57.4949 55.894 57.5815 55.5473 57.5815 55.166V54.672L55.3455 55.088C54.8775 55.1747 54.5525 55.309 54.3705 55.491C54.1972 55.6643 54.1105 55.894 54.1105 56.18C54.1105 56.5007 54.2232 56.752 54.4485 56.934C54.6825 57.1073 54.9989 57.194 55.3975 57.194ZM60.4931 58V48.77H61.5851V52.631L61.4551 52.605C61.5418 52.2237 61.6891 51.9117 61.8971 51.669C62.1051 51.4263 62.3608 51.2487 62.6641 51.136C62.9675 51.0147 63.3011 50.954 63.6651 50.954C64.1591 50.954 64.5751 51.0667 64.9131 51.292C65.2598 51.5087 65.5198 51.8163 65.6931 52.215C65.8751 52.605 65.9661 53.0557 65.9661 53.567V58H64.8741V53.879C64.8741 53.2117 64.7528 52.7177 64.5101 52.397C64.2761 52.0763 63.9165 51.916 63.4311 51.916C62.8765 51.916 62.4301 52.085 62.0921 52.423C61.7541 52.761 61.5851 53.2507 61.5851 53.892V58H60.4931ZM67.6178 60.028L68.2418 58H67.5788V56.531H69.0478V57.818L68.2678 60.028H67.6178ZM76.4341 58C75.8101 58 75.3464 57.857 75.0431 57.571C74.7484 57.285 74.6011 56.8387 74.6011 56.232V49.498H75.6931V56.206C75.6931 56.518 75.7624 56.7347 75.9011 56.856C76.0397 56.9773 76.2521 57.038 76.5381 57.038H77.5261V58H76.4341ZM73.5871 52.072V51.11H77.5261V52.072H73.5871ZM78.9267 58V48.77H80.0187V52.631L79.8887 52.605C79.9754 52.2237 80.1227 51.9117 80.3307 51.669C80.5387 51.4263 80.7944 51.2487 81.0977 51.136C81.4011 51.0147 81.7347 50.954 82.0987 50.954C82.5927 50.954 83.0087 51.0667 83.3467 51.292C83.6934 51.5087 83.9534 51.8163 84.1267 52.215C84.3087 52.605 84.3997 53.0557 84.3997 53.567V58H83.3077V53.879C83.3077 53.2117 83.1864 52.7177 82.9437 52.397C82.7097 52.0763 82.3501 51.916 81.8647 51.916C81.3101 51.916 80.8637 52.085 80.5257 52.423C80.1877 52.761 80.0187 53.2507 80.0187 53.892V58H78.9267ZM88.2125 58.156C87.5018 58.156 86.9341 57.9913 86.5095 57.662C86.0935 57.3327 85.8855 56.8733 85.8855 56.284C85.8855 55.6947 86.0588 55.231 86.4055 54.893C86.7521 54.555 87.3025 54.3167 88.0565 54.178L90.5005 53.723C90.5005 53.1423 90.3618 52.709 90.0845 52.423C89.8158 52.137 89.4085 51.994 88.8625 51.994C88.3858 51.994 88.0088 52.1023 87.7315 52.319C87.4541 52.527 87.2635 52.8303 87.1595 53.229L86.0025 53.138C86.1325 52.488 86.4445 51.9637 86.9385 51.565C87.4411 51.1577 88.0825 50.954 88.8625 50.954C89.7465 50.954 90.4225 51.2053 90.8905 51.708C91.3585 52.202 91.5925 52.8867 91.5925 53.762V56.609C91.5925 56.765 91.6185 56.8777 91.6705 56.947C91.7311 57.0077 91.8265 57.038 91.9565 57.038H92.2295V58C92.1948 58.0087 92.1385 58.013 92.0605 58.013C91.9825 58.0217 91.9001 58.026 91.8135 58.026C91.5015 58.026 91.2458 57.9783 91.0465 57.883C90.8558 57.779 90.7171 57.623 90.6305 57.415C90.5438 57.1983 90.5005 56.9167 90.5005 56.57L90.6305 56.596C90.5698 56.8907 90.4225 57.1593 90.1885 57.402C89.9545 57.636 89.6641 57.8223 89.3175 57.961C88.9708 58.091 88.6025 58.156 88.2125 58.156ZM88.3165 57.194C88.7758 57.194 89.1658 57.1073 89.4865 56.934C89.8158 56.752 90.0671 56.5093 90.2405 56.206C90.4138 55.894 90.5005 55.5473 90.5005 55.166V54.672L88.2645 55.088C87.7965 55.1747 87.4715 55.309 87.2895 55.491C87.1161 55.6643 87.0295 55.894 87.0295 56.18C87.0295 56.5007 87.1421 56.752 87.3675 56.934C87.6015 57.1073 87.9178 57.194 88.3165 57.194ZM93.4629 58V51.11H94.4639L94.5029 52.865L94.3729 52.748C94.4595 52.3407 94.6112 52.007 94.8279 51.747C95.0445 51.4783 95.3045 51.279 95.6079 51.149C95.9199 51.019 96.2535 50.954 96.6089 50.954C97.1375 50.954 97.5709 51.071 97.9089 51.305C98.2555 51.539 98.5112 51.8553 98.6759 52.254C98.8492 52.644 98.9359 53.0817 98.9359 53.567V58H97.8439V53.879C97.8439 53.4543 97.7919 53.099 97.6879 52.813C97.5925 52.5183 97.4365 52.2973 97.2199 52.15C97.0032 51.994 96.7215 51.916 96.3749 51.916C95.8462 51.916 95.4085 52.085 95.0619 52.423C94.7239 52.7523 94.5549 53.2377 94.5549 53.879V58H93.4629ZM100.89 58V48.77H101.982V54.815L105.336 51.11H106.792L104.075 54.035L106.909 58H105.583L103.334 54.776L101.982 56.206V58H100.89ZM110.419 58.156C109.804 58.156 109.279 58.0563 108.846 57.857C108.421 57.6577 108.088 57.3847 107.845 57.038C107.611 56.6827 107.477 56.2797 107.442 55.829L108.586 55.751C108.655 56.167 108.833 56.5007 109.119 56.752C109.405 56.9947 109.838 57.116 110.419 57.116C110.887 57.116 111.26 57.0423 111.537 56.895C111.823 56.739 111.966 56.492 111.966 56.154C111.966 55.972 111.923 55.8203 111.836 55.699C111.749 55.5777 111.58 55.4737 111.329 55.387C111.078 55.2917 110.705 55.2007 110.211 55.114C109.552 54.9927 109.032 54.8453 108.651 54.672C108.278 54.49 108.01 54.269 107.845 54.009C107.689 53.7403 107.611 53.424 107.611 53.06C107.611 52.4447 107.836 51.942 108.287 51.552C108.738 51.1533 109.379 50.954 110.211 50.954C110.774 50.954 111.247 51.058 111.628 51.266C112.018 51.4653 112.321 51.734 112.538 52.072C112.763 52.4013 112.911 52.7653 112.98 53.164L111.836 53.242C111.784 52.9993 111.689 52.787 111.55 52.605C111.411 52.4143 111.229 52.267 111.004 52.163C110.779 52.0503 110.51 51.994 110.198 51.994C109.704 51.994 109.34 52.0893 109.106 52.28C108.872 52.4707 108.755 52.7133 108.755 53.008C108.755 53.2333 108.807 53.4197 108.911 53.567C109.024 53.7057 109.201 53.8227 109.444 53.918C109.687 54.0047 110.012 54.0827 110.419 54.152C111.121 54.2733 111.667 54.4207 112.057 54.594C112.447 54.7673 112.72 54.9797 112.876 55.231C113.032 55.4823 113.11 55.79 113.11 56.154C113.11 56.5787 112.989 56.9427 112.746 57.246C112.512 57.5407 112.191 57.766 111.784 57.922C111.385 58.078 110.93 58.156 110.419 58.156ZM118.653 58V50.486C118.653 49.9747 118.801 49.563 119.096 49.251C119.39 48.9303 119.85 48.77 120.474 48.77H121.566V49.732H120.552C120.283 49.732 120.079 49.8057 119.941 49.953C119.811 50.1003 119.746 50.304 119.746 50.564V58H118.653ZM117.718 52.072V51.11H121.475V52.072H117.718ZM125.226 58.156C124.593 58.156 124.039 58.0087 123.562 57.714C123.085 57.4193 122.717 57.0033 122.457 56.466C122.197 55.92 122.067 55.283 122.067 54.555C122.067 53.8183 122.197 53.1813 122.457 52.644C122.717 52.1067 123.085 51.6907 123.562 51.396C124.039 51.1013 124.593 50.954 125.226 50.954C125.859 50.954 126.409 51.1013 126.877 51.396C127.354 51.6907 127.722 52.1067 127.982 52.644C128.242 53.1813 128.372 53.8183 128.372 54.555C128.372 55.283 128.242 55.92 127.982 56.466C127.722 57.0033 127.354 57.4193 126.877 57.714C126.409 58.0087 125.859 58.156 125.226 58.156ZM125.226 57.116C125.859 57.116 126.348 56.8907 126.695 56.44C127.05 55.9807 127.228 55.3523 127.228 54.555C127.228 53.7577 127.05 53.1337 126.695 52.683C126.348 52.2237 125.859 51.994 125.226 51.994C124.593 51.994 124.099 52.2237 123.744 52.683C123.389 53.1337 123.211 53.7577 123.211 54.555C123.211 55.3523 123.389 55.9807 123.744 56.44C124.099 56.8907 124.593 57.116 125.226 57.116ZM129.86 58V51.11H130.822L130.874 52.852L130.77 52.813C130.857 52.2237 131.043 51.7947 131.329 51.526C131.624 51.2487 132.014 51.11 132.499 51.11H133.175V52.15H132.512C132.166 52.15 131.875 52.215 131.641 52.345C131.416 52.4663 131.243 52.6527 131.121 52.904C131.009 53.1467 130.952 53.4587 130.952 53.84V58H129.86ZM138.036 58V51.11H138.998L139.05 52.852L138.946 52.813C139.033 52.2237 139.219 51.7947 139.505 51.526C139.8 51.2487 140.19 51.11 140.675 51.11H141.351V52.15H140.688C140.341 52.15 140.051 52.215 139.817 52.345C139.592 52.4663 139.418 52.6527 139.297 52.904C139.184 53.1467 139.128 53.4587 139.128 53.84V58H138.036ZM145.132 58.156C144.482 58.156 143.919 58.0087 143.442 57.714C142.974 57.4193 142.61 57.0033 142.35 56.466C142.099 55.92 141.973 55.283 141.973 54.555C141.973 53.827 142.099 53.1943 142.35 52.657C142.61 52.1197 142.97 51.7037 143.429 51.409C143.897 51.1057 144.448 50.954 145.08 50.954C145.678 50.954 146.207 51.097 146.666 51.383C147.126 51.6603 147.481 52.0677 147.732 52.605C147.992 53.1423 148.122 53.7967 148.122 54.568V54.893H143.117C143.161 55.6297 143.356 56.1843 143.702 56.557C144.058 56.9297 144.534 57.116 145.132 57.116C145.583 57.116 145.951 57.012 146.237 56.804C146.532 56.5873 146.736 56.3057 146.848 55.959L148.018 56.05C147.836 56.6653 147.49 57.1723 146.978 57.571C146.476 57.961 145.86 58.156 145.132 58.156ZM143.117 53.931H146.926C146.874 53.2637 146.679 52.774 146.341 52.462C146.012 52.15 145.592 51.994 145.08 51.994C144.552 51.994 144.114 52.1587 143.767 52.488C143.429 52.8087 143.213 53.2897 143.117 53.931ZM151.638 58.156C150.928 58.156 150.36 57.9913 149.935 57.662C149.519 57.3327 149.311 56.8733 149.311 56.284C149.311 55.6947 149.485 55.231 149.831 54.893C150.178 54.555 150.728 54.3167 151.482 54.178L153.926 53.723C153.926 53.1423 153.788 52.709 153.51 52.423C153.242 52.137 152.834 51.994 152.288 51.994C151.812 51.994 151.435 52.1023 151.157 52.319C150.88 52.527 150.689 52.8303 150.585 53.229L149.428 53.138C149.558 52.488 149.87 51.9637 150.364 51.565C150.867 51.1577 151.508 50.954 152.288 50.954C153.172 50.954 153.848 51.2053 154.316 51.708C154.784 52.202 155.018 52.8867 155.018 53.762V56.609C155.018 56.765 155.044 56.8777 155.096 56.947C155.157 57.0077 155.252 57.038 155.382 57.038H155.655V58C155.621 58.0087 155.564 58.013 155.486 58.013C155.408 58.0217 155.326 58.026 155.239 58.026C154.927 58.026 154.672 57.9783 154.472 57.883C154.282 57.779 154.143 57.623 154.056 57.415C153.97 57.1983 153.926 56.9167 153.926 56.57L154.056 56.596C153.996 56.8907 153.848 57.1593 153.614 57.402C153.38 57.636 153.09 57.8223 152.743 57.961C152.397 58.091 152.028 58.156 151.638 58.156ZM151.742 57.194C152.202 57.194 152.592 57.1073 152.912 56.934C153.242 56.752 153.493 56.5093 153.666 56.206C153.84 55.894 153.926 55.5473 153.926 55.166V54.672L151.69 55.088C151.222 55.1747 150.897 55.309 150.715 55.491C150.542 55.6643 150.455 55.894 150.455 56.18C150.455 56.5007 150.568 56.752 150.793 56.934C151.027 57.1073 151.344 57.194 151.742 57.194ZM159.554 58.156C158.913 58.156 158.354 58.0087 157.877 57.714C157.409 57.4193 157.045 57.0033 156.785 56.466C156.525 55.92 156.395 55.283 156.395 54.555C156.395 53.827 156.525 53.1943 156.785 52.657C157.045 52.1197 157.409 51.7037 157.877 51.409C158.354 51.1057 158.913 50.954 159.554 50.954C160.083 50.954 160.551 51.0493 160.958 51.24C161.374 51.422 161.712 51.6907 161.972 52.046C162.232 52.4013 162.401 52.8347 162.479 53.346L161.335 53.424C161.257 52.9647 161.058 52.6137 160.737 52.371C160.417 52.1197 160.022 51.994 159.554 51.994C158.922 51.994 158.428 52.2237 158.072 52.683C157.717 53.1337 157.539 53.7577 157.539 54.555C157.539 55.3523 157.717 55.9807 158.072 56.44C158.428 56.8907 158.922 57.116 159.554 57.116C160.022 57.116 160.417 56.986 160.737 56.726C161.058 56.466 161.257 56.076 161.335 55.556L162.479 55.634C162.401 56.1453 162.232 56.5917 161.972 56.973C161.712 57.3457 161.374 57.636 160.958 57.844C160.551 58.052 160.083 58.156 159.554 58.156ZM163.833 58V48.77H164.925V52.631L164.795 52.605C164.882 52.2237 165.029 51.9117 165.237 51.669C165.445 51.4263 165.701 51.2487 166.004 51.136C166.307 51.0147 166.641 50.954 167.005 50.954C167.499 50.954 167.915 51.0667 168.253 51.292C168.6 51.5087 168.86 51.8163 169.033 52.215C169.215 52.605 169.306 53.0557 169.306 53.567V58H168.214V53.879C168.214 53.2117 168.093 52.7177 167.85 52.397C167.616 52.0763 167.256 51.916 166.771 51.916C166.216 51.916 165.77 52.085 165.432 52.423C165.094 52.761 164.925 53.2507 164.925 53.892V58H163.833ZM171.26 58V51.11H172.352V58H171.26ZM171.234 50.031V48.757H172.378V50.031H171.234ZM174.561 58V51.11H175.562L175.601 52.865L175.471 52.748C175.557 52.3407 175.709 52.007 175.926 51.747C176.142 51.4783 176.402 51.279 176.706 51.149C177.018 51.019 177.351 50.954 177.707 50.954C178.235 50.954 178.669 51.071 179.007 51.305C179.353 51.539 179.609 51.8553 179.774 52.254C179.947 52.644 180.034 53.0817 180.034 53.567V58H178.942V53.879C178.942 53.4543 178.89 53.099 178.786 52.813C178.69 52.5183 178.534 52.2973 178.318 52.15C178.101 51.994 177.819 51.916 177.473 51.916C176.944 51.916 176.506 52.085 176.16 52.423C175.822 52.7523 175.653 53.2377 175.653 53.879V58H174.561ZM184.575 60.106C184.081 60.106 183.635 60.0237 183.236 59.859C182.837 59.6943 182.504 59.4603 182.235 59.157C181.966 58.8537 181.784 58.5027 181.689 58.104L182.833 58.026C182.937 58.3467 183.119 58.598 183.379 58.78C183.648 58.9707 184.046 59.066 184.575 59.066C185.199 59.066 185.676 58.9403 186.005 58.689C186.343 58.4377 186.512 58.0607 186.512 57.558V56.44C186.347 56.804 186.083 57.0943 185.719 57.311C185.355 57.5277 184.948 57.636 184.497 57.636C183.916 57.636 183.396 57.493 182.937 57.207C182.486 56.921 182.131 56.5267 181.871 56.024C181.62 55.5213 181.494 54.945 181.494 54.295C181.494 53.6363 181.62 53.06 181.871 52.566C182.122 52.0633 182.469 51.669 182.911 51.383C183.362 51.097 183.873 50.954 184.445 50.954C184.93 50.954 185.364 51.0667 185.745 51.292C186.135 51.5173 186.408 51.8207 186.564 52.202V51.11H187.604V57.532C187.604 58.0693 187.483 58.5287 187.24 58.91C186.997 59.3 186.651 59.5947 186.2 59.794C185.749 60.002 185.208 60.106 184.575 60.106ZM184.549 56.596C185.138 56.596 185.611 56.3923 185.966 55.985C186.321 55.569 186.503 55.0057 186.512 54.295C186.521 53.8183 186.443 53.411 186.278 53.073C186.122 52.7263 185.892 52.462 185.589 52.28C185.294 52.0893 184.948 51.994 184.549 51.994C183.942 51.994 183.47 52.202 183.132 52.618C182.803 53.0253 182.638 53.5843 182.638 54.295C182.638 55.0057 182.807 55.569 183.145 55.985C183.492 56.3923 183.96 56.596 184.549 56.596ZM195.622 58.156C194.989 58.156 194.434 58.0087 193.958 57.714C193.481 57.4193 193.113 57.0033 192.853 56.466C192.593 55.92 192.463 55.283 192.463 54.555C192.463 53.8183 192.593 53.1813 192.853 52.644C193.113 52.1067 193.481 51.6907 193.958 51.396C194.434 51.1013 194.989 50.954 195.622 50.954C196.254 50.954 196.805 51.1013 197.273 51.396C197.749 51.6907 198.118 52.1067 198.378 52.644C198.638 53.1813 198.768 53.8183 198.768 54.555C198.768 55.283 198.638 55.92 198.378 56.466C198.118 57.0033 197.749 57.4193 197.273 57.714C196.805 58.0087 196.254 58.156 195.622 58.156ZM195.622 57.116C196.254 57.116 196.744 56.8907 197.091 56.44C197.446 55.9807 197.624 55.3523 197.624 54.555C197.624 53.7577 197.446 53.1337 197.091 52.683C196.744 52.2237 196.254 51.994 195.622 51.994C194.989 51.994 194.495 52.2237 194.14 52.683C193.784 53.1337 193.607 53.7577 193.607 54.555C193.607 55.3523 193.784 55.9807 194.14 56.44C194.495 56.8907 194.989 57.116 195.622 57.116ZM202.518 58.156C201.833 58.156 201.283 57.9263 200.867 57.467C200.459 56.999 200.256 56.3577 200.256 55.543V51.11H201.348V55.244C201.348 55.9113 201.465 56.4053 201.699 56.726C201.941 57.038 202.31 57.194 202.804 57.194C203.35 57.194 203.779 57.0207 204.091 56.674C204.403 56.3187 204.559 55.8333 204.559 55.218V51.11H205.651V58H204.611V56.297L204.78 56.388C204.641 56.9513 204.377 57.389 203.987 57.701C203.597 58.0043 203.107 58.156 202.518 58.156ZM209.887 58C209.263 58 208.8 57.857 208.496 57.571C208.202 57.285 208.054 56.8387 208.054 56.232V49.498H209.146V56.206C209.146 56.518 209.216 56.7347 209.354 56.856C209.493 56.9773 209.705 57.038 209.991 57.038H210.979V58H209.887ZM207.04 52.072V51.11H210.979V52.072H207.04ZM217.565 58.156C216.854 58.156 216.287 57.9913 215.862 57.662C215.446 57.3327 215.238 56.8733 215.238 56.284C215.238 55.6947 215.411 55.231 215.758 54.893C216.105 54.555 216.655 54.3167 217.409 54.178L219.853 53.723C219.853 53.1423 219.714 52.709 219.437 52.423C219.168 52.137 218.761 51.994 218.215 51.994C217.738 51.994 217.361 52.1023 217.084 52.319C216.807 52.527 216.616 52.8303 216.512 53.229L215.355 53.138C215.485 52.488 215.797 51.9637 216.291 51.565C216.794 51.1577 217.435 50.954 218.215 50.954C219.099 50.954 219.775 51.2053 220.243 51.708C220.711 52.202 220.945 52.8867 220.945 53.762V56.609C220.945 56.765 220.971 56.8777 221.023 56.947C221.084 57.0077 221.179 57.038 221.309 57.038H221.582V58C221.547 58.0087 221.491 58.013 221.413 58.013C221.335 58.0217 221.253 58.026 221.166 58.026C220.854 58.026 220.598 57.9783 220.399 57.883C220.208 57.779 220.07 57.623 219.983 57.415C219.896 57.1983 219.853 56.9167 219.853 56.57L219.983 56.596C219.922 56.8907 219.775 57.1593 219.541 57.402C219.307 57.636 219.017 57.8223 218.67 57.961C218.323 58.091 217.955 58.156 217.565 58.156ZM217.669 57.194C218.128 57.194 218.518 57.1073 218.839 56.934C219.168 56.752 219.42 56.5093 219.593 56.206C219.766 55.894 219.853 55.5473 219.853 55.166V54.672L217.617 55.088C217.149 55.1747 216.824 55.309 216.642 55.491C216.469 55.6643 216.382 55.894 216.382 56.18C216.382 56.5007 216.495 56.752 216.72 56.934C216.954 57.1073 217.27 57.194 217.669 57.194ZM225.924 58.156C225.447 58.156 225.022 58.052 224.65 57.844C224.277 57.6273 223.991 57.3327 223.792 56.96L223.753 58H222.765V48.77H223.857V52.072C224.03 51.786 224.299 51.5303 224.663 51.305C225.027 51.071 225.447 50.954 225.924 50.954C226.53 50.954 227.055 51.1013 227.497 51.396C227.939 51.6907 228.281 52.1067 228.524 52.644C228.766 53.1813 228.888 53.8183 228.888 54.555C228.888 55.2917 228.766 55.9287 228.524 56.466C228.281 57.0033 227.939 57.4193 227.497 57.714C227.055 58.0087 226.53 58.156 225.924 58.156ZM225.859 57.116C226.439 57.116 226.899 56.8863 227.237 56.427C227.575 55.9677 227.744 55.3437 227.744 54.555C227.744 53.7577 227.575 53.1337 227.237 52.683C226.899 52.2237 226.448 51.994 225.885 51.994C225.46 51.994 225.096 52.098 224.793 52.306C224.489 52.5053 224.255 52.7957 224.091 53.177C223.935 53.5583 223.857 54.0177 223.857 54.555C223.857 55.075 223.935 55.53 224.091 55.92C224.255 56.3013 224.485 56.596 224.78 56.804C225.083 57.012 225.443 57.116 225.859 57.116ZM233.06 58.156C232.427 58.156 231.873 58.0087 231.396 57.714C230.919 57.4193 230.551 57.0033 230.291 56.466C230.031 55.92 229.901 55.283 229.901 54.555C229.901 53.8183 230.031 53.1813 230.291 52.644C230.551 52.1067 230.919 51.6907 231.396 51.396C231.873 51.1013 232.427 50.954 233.06 50.954C233.693 50.954 234.243 51.1013 234.711 51.396C235.188 51.6907 235.556 52.1067 235.816 52.644C236.076 53.1813 236.206 53.8183 236.206 54.555C236.206 55.283 236.076 55.92 235.816 56.466C235.556 57.0033 235.188 57.4193 234.711 57.714C234.243 58.0087 233.693 58.156 233.06 58.156ZM233.06 57.116C233.693 57.116 234.182 56.8907 234.529 56.44C234.884 55.9807 235.062 55.3523 235.062 54.555C235.062 53.7577 234.884 53.1337 234.529 52.683C234.182 52.2237 233.693 51.994 233.06 51.994C232.427 51.994 231.933 52.2237 231.578 52.683C231.223 53.1337 231.045 53.7577 231.045 54.555C231.045 55.3523 231.223 55.9807 231.578 56.44C231.933 56.8907 232.427 57.116 233.06 57.116ZM239.956 58.156C239.272 58.156 238.721 57.9263 238.305 57.467C237.898 56.999 237.694 56.3577 237.694 55.543V51.11H238.786V55.244C238.786 55.9113 238.903 56.4053 239.137 56.726C239.38 57.038 239.748 57.194 240.242 57.194C240.788 57.194 241.217 57.0207 241.529 56.674C241.841 56.3187 241.997 55.8333 241.997 55.218V51.11H243.089V58H242.049V56.297L242.218 56.388C242.08 56.9513 241.815 57.389 241.425 57.701C241.035 58.0043 240.546 58.156 239.956 58.156ZM247.326 58C246.702 58 246.238 57.857 245.935 57.571C245.64 57.285 245.493 56.8387 245.493 56.232V49.498H246.585V56.206C246.585 56.518 246.654 56.7347 246.793 56.856C246.931 56.9773 247.144 57.038 247.43 57.038H248.418V58H247.326ZM244.479 52.072V51.11H248.418V52.072H244.479ZM18.196 78V68.77H19.314V73.255L18.742 72.813H24.527L23.955 73.255V68.77H25.073V78H23.955V73.463L24.527 73.905H18.742L19.314 73.463V78H18.196ZM29.6147 78L26.2737 68.77H27.4957L30.3557 76.778L33.2027 68.77H34.4247L31.0837 78H29.6147ZM33.5608 78L36.8888 68.77H38.3968L41.7248 78H40.5028L39.5798 75.374H35.7058L34.7828 78H33.5608ZM36.0828 74.282H39.2028L37.6428 69.745L36.0828 74.282ZM46.3228 78.208C45.4995 78.208 44.7758 78.0173 44.1518 77.636C43.5278 77.246 43.0425 76.6913 42.6958 75.972C42.3492 75.2527 42.1758 74.3947 42.1758 73.398C42.1758 72.4013 42.3492 71.5433 42.6958 70.824C43.0425 70.096 43.5278 69.537 44.1518 69.147C44.7758 68.757 45.4995 68.562 46.3228 68.562C47.4408 68.562 48.3075 68.8437 48.9228 69.407C49.5382 69.9703 49.9412 70.7373 50.1318 71.708L48.9488 71.786C48.8188 71.1273 48.5415 70.6073 48.1168 70.226C47.6922 69.8447 47.0942 69.654 46.3228 69.654C45.7335 69.654 45.2135 69.8057 44.7628 70.109C44.3208 70.4037 43.9742 70.8327 43.7228 71.396C43.4715 71.9507 43.3458 72.618 43.3458 73.398C43.3458 74.178 43.4715 74.8453 43.7228 75.4C43.9742 75.9547 44.3208 76.3793 44.7628 76.674C45.2135 76.9687 45.7335 77.116 46.3228 77.116C47.1288 77.116 47.7528 76.908 48.1948 76.492C48.6368 76.0673 48.9142 75.4953 49.0268 74.776L50.2098 74.854C50.0972 75.5213 49.8762 76.1063 49.5468 76.609C49.2175 77.1117 48.7798 77.506 48.2338 77.792C47.6965 78.0693 47.0595 78.208 46.3228 78.208ZM55.0214 78V71.11H55.9834L56.0354 72.852L55.9314 72.813C56.0181 72.2237 56.2044 71.7947 56.4904 71.526C56.7851 71.2487 57.1751 71.11 57.6604 71.11H58.3364V72.15H57.6734C57.3268 72.15 57.0364 72.215 56.8024 72.345C56.5771 72.4663 56.4038 72.6527 56.2824 72.904C56.1698 73.1467 56.1134 73.4587 56.1134 73.84V78H55.0214ZM62.1177 78.156C61.4677 78.156 60.9044 78.0087 60.4277 77.714C59.9597 77.4193 59.5957 77.0033 59.3357 76.466C59.0844 75.92 58.9587 75.283 58.9587 74.555C58.9587 73.827 59.0844 73.1943 59.3357 72.657C59.5957 72.1197 59.9554 71.7037 60.4147 71.409C60.8827 71.1057 61.4331 70.954 62.0657 70.954C62.6637 70.954 63.1924 71.097 63.6517 71.383C64.1111 71.6603 64.4664 72.0677 64.7177 72.605C64.9777 73.1423 65.1077 73.7967 65.1077 74.568V74.893H60.1027C60.1461 75.6297 60.3411 76.1843 60.6877 76.557C61.0431 76.9297 61.5197 77.116 62.1177 77.116C62.5684 77.116 62.9367 77.012 63.2227 76.804C63.5174 76.5873 63.7211 76.3057 63.8337 75.959L65.0037 76.05C64.8217 76.6653 64.4751 77.1723 63.9637 77.571C63.4611 77.961 62.8457 78.156 62.1177 78.156ZM60.1027 73.931H63.9117C63.8597 73.2637 63.6647 72.774 63.3267 72.462C62.9974 72.15 62.5771 71.994 62.0657 71.994C61.5371 71.994 61.0994 72.1587 60.7527 72.488C60.4147 72.8087 60.1981 73.2897 60.1027 73.931ZM66.5869 79.95V71.11H67.6009L67.6269 72.592L67.4709 72.514C67.6442 72.0027 67.9302 71.617 68.3289 71.357C68.7362 71.0883 69.2042 70.954 69.7329 70.954C70.4175 70.954 70.9765 71.123 71.4099 71.461C71.8519 71.799 72.1769 72.241 72.3849 72.787C72.6015 73.333 72.7099 73.9223 72.7099 74.555C72.7099 75.1877 72.6015 75.777 72.3849 76.323C72.1769 76.869 71.8519 77.311 71.4099 77.649C70.9765 77.987 70.4175 78.156 69.7329 78.156C69.3775 78.156 69.0439 78.0953 68.7319 77.974C68.4285 77.8527 68.1685 77.6837 67.9519 77.467C67.7439 77.2503 67.6009 76.9947 67.5229 76.7L67.6789 76.518V79.95H66.5869ZM69.6289 77.116C70.2269 77.116 70.6992 76.8907 71.0459 76.44C71.3925 75.9893 71.5659 75.361 71.5659 74.555C71.5659 73.749 71.3925 73.1207 71.0459 72.67C70.6992 72.2193 70.2269 71.994 69.6289 71.994C69.2302 71.994 68.8835 72.0893 68.5889 72.28C68.3029 72.4707 68.0775 72.7567 67.9129 73.138C67.7569 73.5193 67.6789 73.9917 67.6789 74.555C67.6789 75.1183 67.7569 75.5907 67.9129 75.972C68.0689 76.3533 68.2942 76.6393 68.5889 76.83C68.8835 77.0207 69.2302 77.116 69.6289 77.116ZM76.2281 78.156C75.5174 78.156 74.9498 77.9913 74.5251 77.662C74.1091 77.3327 73.9011 76.8733 73.9011 76.284C73.9011 75.6947 74.0744 75.231 74.4211 74.893C74.7678 74.555 75.3181 74.3167 76.0721 74.178L78.5161 73.723C78.5161 73.1423 78.3774 72.709 78.1001 72.423C77.8314 72.137 77.4241 71.994 76.8781 71.994C76.4014 71.994 76.0244 72.1023 75.7471 72.319C75.4698 72.527 75.2791 72.8303 75.1751 73.229L74.0181 73.138C74.1481 72.488 74.4601 71.9637 74.9541 71.565C75.4568 71.1577 76.0981 70.954 76.8781 70.954C77.7621 70.954 78.4381 71.2053 78.9061 71.708C79.3741 72.202 79.6081 72.8867 79.6081 73.762V76.609C79.6081 76.765 79.6341 76.8777 79.6861 76.947C79.7468 77.0077 79.8421 77.038 79.9721 77.038H80.2451V78C80.2104 78.0087 80.1541 78.013 80.0761 78.013C79.9981 78.0217 79.9158 78.026 79.8291 78.026C79.5171 78.026 79.2614 77.9783 79.0621 77.883C78.8714 77.779 78.7328 77.623 78.6461 77.415C78.5594 77.1983 78.5161 76.9167 78.5161 76.57L78.6461 76.596C78.5854 76.8907 78.4381 77.1593 78.2041 77.402C77.9701 77.636 77.6798 77.8223 77.3331 77.961C76.9864 78.091 76.6181 78.156 76.2281 78.156ZM76.3321 77.194C76.7914 77.194 77.1814 77.1073 77.5021 76.934C77.8314 76.752 78.0828 76.5093 78.2561 76.206C78.4294 75.894 78.5161 75.5473 78.5161 75.166V74.672L76.2801 75.088C75.8121 75.1747 75.4871 75.309 75.3051 75.491C75.1318 75.6643 75.0451 75.894 75.0451 76.18C75.0451 76.5007 75.1578 76.752 75.3831 76.934C75.6171 77.1073 75.9334 77.194 76.3321 77.194ZM81.4277 78V71.11H82.5197V78H81.4277ZM81.4017 70.031V68.757H82.5457V70.031H81.4017ZM84.7285 78V71.11H85.6905L85.7425 72.852L85.6385 72.813C85.7251 72.2237 85.9115 71.7947 86.1975 71.526C86.4921 71.2487 86.8821 71.11 87.3675 71.11H88.0435V72.15H87.3805C87.0338 72.15 86.7435 72.215 86.5095 72.345C86.2841 72.4663 86.1108 72.6527 85.9895 72.904C85.8768 73.1467 85.8205 73.4587 85.8205 73.84V78H84.7285ZM88.4118 78V76.531H89.8808V78H88.4118ZM96.6301 78L94.1991 68.77H95.4211L97.3191 76.466L99.2041 68.77H100.478L102.376 76.466L104.261 68.77H105.496L103.065 78H101.661L99.8411 70.85L98.0211 78H96.6301ZM109.205 78.156C108.555 78.156 107.991 78.0087 107.515 77.714C107.047 77.4193 106.683 77.0033 106.423 76.466C106.171 75.92 106.046 75.283 106.046 74.555C106.046 73.827 106.171 73.1943 106.423 72.657C106.683 72.1197 107.042 71.7037 107.502 71.409C107.97 71.1057 108.52 70.954 109.153 70.954C109.751 70.954 110.279 71.097 110.739 71.383C111.198 71.6603 111.553 72.0677 111.805 72.605C112.065 73.1423 112.195 73.7967 112.195 74.568V74.893H107.19C107.233 75.6297 107.428 76.1843 107.775 76.557C108.13 76.9297 108.607 77.116 109.205 77.116C109.655 77.116 110.024 77.012 110.31 76.804C110.604 76.5873 110.808 76.3057 110.921 75.959L112.091 76.05C111.909 76.6653 111.562 77.1723 111.051 77.571C110.548 77.961 109.933 78.156 109.205 78.156ZM107.19 73.931H110.999C110.947 73.2637 110.752 72.774 110.414 72.462C110.084 72.15 109.664 71.994 109.153 71.994C108.624 71.994 108.186 72.1587 107.84 72.488C107.502 72.8087 107.285 73.2897 107.19 73.931ZM117.051 78V68.77H118.143V72.631L118.013 72.605C118.099 72.2237 118.247 71.9117 118.455 71.669C118.663 71.4263 118.918 71.2487 119.222 71.136C119.525 71.0147 119.859 70.954 120.223 70.954C120.717 70.954 121.133 71.0667 121.471 71.292C121.817 71.5087 122.077 71.8163 122.251 72.215C122.433 72.605 122.524 73.0557 122.524 73.567V78H121.432V73.879C121.432 73.2117 121.31 72.7177 121.068 72.397C120.834 72.0763 120.474 71.916 119.989 71.916C119.434 71.916 118.988 72.085 118.65 72.423C118.312 72.761 118.143 73.2507 118.143 73.892V78H117.051ZM126.337 78.156C125.626 78.156 125.058 77.9913 124.634 77.662C124.218 77.3327 124.01 76.8733 124.01 76.284C124.01 75.6947 124.183 75.231 124.53 74.893C124.876 74.555 125.427 74.3167 126.181 74.178L128.625 73.723C128.625 73.1423 128.486 72.709 128.209 72.423C127.94 72.137 127.533 71.994 126.987 71.994C126.51 71.994 126.133 72.1023 125.856 72.319C125.578 72.527 125.388 72.8303 125.284 73.229L124.127 73.138C124.257 72.488 124.569 71.9637 125.062 71.565C125.565 71.1577 126.207 70.954 126.987 70.954C127.871 70.954 128.547 71.2053 129.015 71.708C129.483 72.202 129.717 72.8867 129.717 73.762V76.609C129.717 76.765 129.743 76.8777 129.795 76.947C129.855 77.0077 129.951 77.038 130.081 77.038H130.354V78C130.319 78.0087 130.263 78.013 130.185 78.013C130.107 78.0217 130.024 78.026 129.938 78.026C129.626 78.026 129.37 77.9783 129.171 77.883C128.98 77.779 128.841 77.623 128.755 77.415C128.668 77.1983 128.625 76.9167 128.625 76.57L128.755 76.596C128.694 76.8907 128.547 77.1593 128.313 77.402C128.079 77.636 127.788 77.8223 127.442 77.961C127.095 78.091 126.727 78.156 126.337 78.156ZM126.441 77.194C126.9 77.194 127.29 77.1073 127.611 76.934C127.94 76.752 128.191 76.5093 128.365 76.206C128.538 75.894 128.625 75.5473 128.625 75.166V74.672L126.389 75.088C125.921 75.1747 125.596 75.309 125.414 75.491C125.24 75.6643 125.153 75.894 125.153 76.18C125.153 76.5007 125.266 76.752 125.492 76.934C125.726 77.1073 126.042 77.194 126.441 77.194ZM133.075 78L130.566 71.11H131.762L133.764 76.882L135.766 71.11H136.962L134.453 78H133.075ZM140.638 78.156C139.988 78.156 139.425 78.0087 138.948 77.714C138.48 77.4193 138.116 77.0033 137.856 76.466C137.605 75.92 137.479 75.283 137.479 74.555C137.479 73.827 137.605 73.1943 137.856 72.657C138.116 72.1197 138.476 71.7037 138.935 71.409C139.403 71.1057 139.954 70.954 140.586 70.954C141.184 70.954 141.713 71.097 142.172 71.383C142.632 71.6603 142.987 72.0677 143.238 72.605C143.498 73.1423 143.628 73.7967 143.628 74.568V74.893H138.623C138.667 75.6297 138.862 76.1843 139.208 76.557C139.564 76.9297 140.04 77.116 140.638 77.116C141.089 77.116 141.457 77.012 141.743 76.804C142.038 76.5873 142.242 76.3057 142.354 75.959L143.524 76.05C143.342 76.6653 142.996 77.1723 142.484 77.571C141.982 77.961 141.366 78.156 140.638 78.156ZM138.623 73.931H142.432C142.38 73.2637 142.185 72.774 141.847 72.462C141.518 72.15 141.098 71.994 140.586 71.994C140.058 71.994 139.62 72.1587 139.273 72.488C138.935 72.8087 138.719 73.2897 138.623 73.931ZM151.006 78C150.382 78 149.919 77.857 149.615 77.571C149.321 77.285 149.173 76.8387 149.173 76.232V69.498H150.265V76.206C150.265 76.518 150.335 76.7347 150.473 76.856C150.612 76.9773 150.824 77.038 151.11 77.038H152.098V78H151.006ZM148.159 72.072V71.11H152.098V72.072H148.159ZM154.826 78L152.694 71.11H153.89L155.502 76.856L157.14 71.11H158.31L159.948 76.856L161.573 71.11H162.769L160.637 78H159.259L157.725 72.761L156.191 78H154.826ZM166.448 78.156C165.815 78.156 165.26 78.0087 164.784 77.714C164.307 77.4193 163.939 77.0033 163.679 76.466C163.419 75.92 163.289 75.283 163.289 74.555C163.289 73.8183 163.419 73.1813 163.679 72.644C163.939 72.1067 164.307 71.6907 164.784 71.396C165.26 71.1013 165.815 70.954 166.448 70.954C167.08 70.954 167.631 71.1013 168.099 71.396C168.575 71.6907 168.944 72.1067 169.204 72.644C169.464 73.1813 169.594 73.8183 169.594 74.555C169.594 75.283 169.464 75.92 169.204 76.466C168.944 77.0033 168.575 77.4193 168.099 77.714C167.631 78.0087 167.08 78.156 166.448 78.156ZM166.448 77.116C167.08 77.116 167.57 76.8907 167.917 76.44C168.272 75.9807 168.45 75.3523 168.45 74.555C168.45 73.7577 168.272 73.1337 167.917 72.683C167.57 72.2237 167.08 71.994 166.448 71.994C165.815 71.994 165.321 72.2237 164.966 72.683C164.61 73.1337 164.433 73.7577 164.433 74.555C164.433 75.3523 164.61 75.9807 164.966 76.44C165.321 76.8907 165.815 77.116 166.448 77.116ZM177.15 78.156C176.517 78.156 175.963 78.0087 175.486 77.714C175.009 77.4193 174.641 77.0033 174.381 76.466C174.121 75.92 173.991 75.283 173.991 74.555C173.991 73.8183 174.121 73.1813 174.381 72.644C174.641 72.1067 175.009 71.6907 175.486 71.396C175.963 71.1013 176.517 70.954 177.15 70.954C177.783 70.954 178.333 71.1013 178.801 71.396C179.278 71.6907 179.646 72.1067 179.906 72.644C180.166 73.1813 180.296 73.8183 180.296 74.555C180.296 75.283 180.166 75.92 179.906 76.466C179.646 77.0033 179.278 77.4193 178.801 77.714C178.333 78.0087 177.783 78.156 177.15 78.156ZM177.15 77.116C177.783 77.116 178.272 76.8907 178.619 76.44C178.974 75.9807 179.152 75.3523 179.152 74.555C179.152 73.7577 178.974 73.1337 178.619 72.683C178.272 72.2237 177.783 71.994 177.15 71.994C176.517 71.994 176.023 72.2237 175.668 72.683C175.313 73.1337 175.135 73.7577 175.135 74.555C175.135 75.3523 175.313 75.9807 175.668 76.44C176.023 76.8907 176.517 77.116 177.15 77.116ZM181.784 79.95V71.11H182.798L182.824 72.592L182.668 72.514C182.841 72.0027 183.127 71.617 183.526 71.357C183.933 71.0883 184.401 70.954 184.93 70.954C185.615 70.954 186.174 71.123 186.607 71.461C187.049 71.799 187.374 72.241 187.582 72.787C187.799 73.333 187.907 73.9223 187.907 74.555C187.907 75.1877 187.799 75.777 187.582 76.323C187.374 76.869 187.049 77.311 186.607 77.649C186.174 77.987 185.615 78.156 184.93 78.156C184.575 78.156 184.241 78.0953 183.929 77.974C183.626 77.8527 183.366 77.6837 183.149 77.467C182.941 77.2503 182.798 76.9947 182.72 76.7L182.876 76.518V79.95H181.784ZM184.826 77.116C185.424 77.116 185.896 76.8907 186.243 76.44C186.59 75.9893 186.763 75.361 186.763 74.555C186.763 73.749 186.59 73.1207 186.243 72.67C185.896 72.2193 185.424 71.994 184.826 71.994C184.427 71.994 184.081 72.0893 183.786 72.28C183.5 72.4707 183.275 72.7567 183.11 73.138C182.954 73.5193 182.876 73.9917 182.876 74.555C182.876 75.1183 182.954 75.5907 183.11 75.972C183.266 76.3533 183.491 76.6393 183.786 76.83C184.081 77.0207 184.427 77.116 184.826 77.116ZM192.08 78.156C191.43 78.156 190.866 78.0087 190.39 77.714C189.922 77.4193 189.558 77.0033 189.298 76.466C189.046 75.92 188.921 75.283 188.921 74.555C188.921 73.827 189.046 73.1943 189.298 72.657C189.558 72.1197 189.917 71.7037 190.377 71.409C190.845 71.1057 191.395 70.954 192.028 70.954C192.626 70.954 193.154 71.097 193.614 71.383C194.073 71.6603 194.428 72.0677 194.68 72.605C194.94 73.1423 195.07 73.7967 195.07 74.568V74.893H190.065C190.108 75.6297 190.303 76.1843 190.65 76.557C191.005 76.9297 191.482 77.116 192.08 77.116C192.53 77.116 192.899 77.012 193.185 76.804C193.479 76.5873 193.683 76.3057 193.796 75.959L194.966 76.05C194.784 76.6653 194.437 77.1723 193.926 77.571C193.423 77.961 192.808 78.156 192.08 78.156ZM190.065 73.931H193.874C193.822 73.2637 193.627 72.774 193.289 72.462C192.959 72.15 192.539 71.994 192.028 71.994C191.499 71.994 191.061 72.1587 190.715 72.488C190.377 72.8087 190.16 73.2897 190.065 73.931ZM196.549 78V71.11H197.55L197.589 72.865L197.459 72.748C197.545 72.3407 197.697 72.007 197.914 71.747C198.13 71.4783 198.39 71.279 198.694 71.149C199.006 71.019 199.339 70.954 199.695 70.954C200.223 70.954 200.657 71.071 200.995 71.305C201.341 71.539 201.597 71.8553 201.762 72.254C201.935 72.644 202.022 73.0817 202.022 73.567V78H200.93V73.879C200.93 73.4543 200.878 73.099 200.774 72.813C200.678 72.5183 200.522 72.2973 200.306 72.15C200.089 71.994 199.807 71.916 199.461 71.916C198.932 71.916 198.494 72.085 198.148 72.423C197.81 72.7523 197.641 73.2377 197.641 73.879V78H196.549ZM203.976 78V71.11H205.068V78H203.976ZM203.95 70.031V68.757H205.094V70.031H203.95ZM207.276 78V71.11H208.277L208.316 72.865L208.186 72.748C208.273 72.3407 208.425 72.007 208.641 71.747C208.858 71.4783 209.118 71.279 209.421 71.149C209.733 71.019 210.067 70.954 210.422 70.954C210.951 70.954 211.384 71.071 211.722 71.305C212.069 71.539 212.325 71.8553 212.489 72.254C212.663 72.644 212.749 73.0817 212.749 73.567V78H211.657V73.879C211.657 73.4543 211.605 73.099 211.501 72.813C211.406 72.5183 211.25 72.2973 211.033 72.15C210.817 71.994 210.535 71.916 210.188 71.916C209.66 71.916 209.222 72.085 208.875 72.423C208.537 72.7523 208.368 73.2377 208.368 73.879V78H207.276ZM217.291 80.106C216.797 80.106 216.35 80.0237 215.952 79.859C215.553 79.6943 215.219 79.4603 214.951 79.157C214.682 78.8537 214.5 78.5027 214.405 78.104L215.549 78.026C215.653 78.3467 215.835 78.598 216.095 78.78C216.363 78.9707 216.762 79.066 217.291 79.066C217.915 79.066 218.391 78.9403 218.721 78.689C219.059 78.4377 219.228 78.0607 219.228 77.558V76.44C219.063 76.804 218.799 77.0943 218.435 77.311C218.071 77.5277 217.663 77.636 217.213 77.636C216.632 77.636 216.112 77.493 215.653 77.207C215.202 76.921 214.847 76.5267 214.587 76.024C214.335 75.5213 214.21 74.945 214.21 74.295C214.21 73.6363 214.335 73.06 214.587 72.566C214.838 72.0633 215.185 71.669 215.627 71.383C216.077 71.097 216.589 70.954 217.161 70.954C217.646 70.954 218.079 71.0667 218.461 71.292C218.851 71.5173 219.124 71.8207 219.28 72.202V71.11H220.32V77.532C220.32 78.0693 220.198 78.5287 219.956 78.91C219.713 79.3 219.366 79.5947 218.916 79.794C218.465 80.002 217.923 80.106 217.291 80.106ZM217.265 76.596C217.854 76.596 218.326 76.3923 218.682 75.985C219.037 75.569 219.219 75.0057 219.228 74.295C219.236 73.8183 219.158 73.411 218.994 73.073C218.838 72.7263 218.608 72.462 218.305 72.28C218.01 72.0893 217.663 71.994 217.265 71.994C216.658 71.994 216.186 72.202 215.848 72.618C215.518 73.0253 215.354 73.5843 215.354 74.295C215.354 75.0057 215.523 75.569 215.861 75.985C216.207 76.3923 216.675 76.596 217.265 76.596ZM224.778 78.156C224.163 78.156 223.639 78.0563 223.205 77.857C222.781 77.6577 222.447 77.3847 222.204 77.038C221.97 76.6827 221.836 76.2797 221.801 75.829L222.945 75.751C223.015 76.167 223.192 76.5007 223.478 76.752C223.764 76.9947 224.198 77.116 224.778 77.116C225.246 77.116 225.619 77.0423 225.896 76.895C226.182 76.739 226.325 76.492 226.325 76.154C226.325 75.972 226.282 75.8203 226.195 75.699C226.109 75.5777 225.94 75.4737 225.688 75.387C225.437 75.2917 225.064 75.2007 224.57 75.114C223.912 74.9927 223.392 74.8453 223.01 74.672C222.638 74.49 222.369 74.269 222.204 74.009C222.048 73.7403 221.97 73.424 221.97 73.06C221.97 72.4447 222.196 71.942 222.646 71.552C223.097 71.1533 223.738 70.954 224.57 70.954C225.134 70.954 225.606 71.058 225.987 71.266C226.377 71.4653 226.681 71.734 226.897 72.072C227.123 72.4013 227.27 72.7653 227.339 73.164L226.195 73.242C226.143 72.9993 226.048 72.787 225.909 72.605C225.771 72.4143 225.589 72.267 225.363 72.163C225.138 72.0503 224.869 71.994 224.557 71.994C224.063 71.994 223.699 72.0893 223.465 72.28C223.231 72.4707 223.114 72.7133 223.114 73.008C223.114 73.2333 223.166 73.4197 223.27 73.567C223.383 73.7057 223.561 73.8227 223.803 73.918C224.046 74.0047 224.371 74.0827 224.778 74.152C225.48 74.2733 226.026 74.4207 226.416 74.594C226.806 74.7673 227.079 74.9797 227.235 75.231C227.391 75.4823 227.469 75.79 227.469 76.154C227.469 76.5787 227.348 76.9427 227.105 77.246C226.871 77.5407 226.551 77.766 226.143 77.922C225.745 78.078 225.29 78.156 224.778 78.156ZM234.859 78C234.235 78 233.771 77.857 233.468 77.571C233.173 77.285 233.026 76.8387 233.026 76.232V69.498H234.118V76.206C234.118 76.518 234.187 76.7347 234.326 76.856C234.465 76.9773 234.677 77.038 234.963 77.038H235.951V78H234.859ZM232.012 72.072V71.11H235.951V72.072H232.012ZM237.352 78V68.77H238.444V72.631L238.314 72.605C238.4 72.2237 238.548 71.9117 238.756 71.669C238.964 71.4263 239.219 71.2487 239.523 71.136C239.826 71.0147 240.16 70.954 240.524 70.954C241.018 70.954 241.434 71.0667 241.772 71.292C242.118 71.5087 242.378 71.8163 242.552 72.215C242.734 72.605 242.825 73.0557 242.825 73.567V78H241.733V73.879C241.733 73.2117 241.611 72.7177 241.369 72.397C241.135 72.0763 240.775 71.916 240.29 71.916C239.735 71.916 239.289 72.085 238.951 72.423C238.613 72.761 238.444 73.2507 238.444 73.892V78H237.352ZM244.778 78V71.11H245.87V78H244.778ZM244.752 70.031V68.757H245.896V70.031H244.752ZM250.334 78.156C249.719 78.156 249.194 78.0563 248.761 77.857C248.336 77.6577 248.003 77.3847 247.76 77.038C247.526 76.6827 247.392 76.2797 247.357 75.829L248.501 75.751C248.57 76.167 248.748 76.5007 249.034 76.752C249.32 76.9947 249.753 77.116 250.334 77.116C250.802 77.116 251.175 77.0423 251.452 76.895C251.738 76.739 251.881 76.492 251.881 76.154C251.881 75.972 251.838 75.8203 251.751 75.699C251.664 75.5777 251.495 75.4737 251.244 75.387C250.993 75.2917 250.62 75.2007 250.126 75.114C249.467 74.9927 248.947 74.8453 248.566 74.672C248.193 74.49 247.925 74.269 247.76 74.009C247.604 73.7403 247.526 73.424 247.526 73.06C247.526 72.4447 247.751 71.942 248.202 71.552C248.653 71.1533 249.294 70.954 250.126 70.954C250.689 70.954 251.162 71.058 251.543 71.266C251.933 71.4653 252.236 71.734 252.453 72.072C252.678 72.4013 252.826 72.7653 252.895 73.164L251.751 73.242C251.699 72.9993 251.604 72.787 251.465 72.605C251.326 72.4143 251.144 72.267 250.919 72.163C250.694 72.0503 250.425 71.994 250.113 71.994C249.619 71.994 249.255 72.0893 249.021 72.28C248.787 72.4707 248.67 72.7133 248.67 73.008C248.67 73.2333 248.722 73.4197 248.826 73.567C248.939 73.7057 249.116 73.8227 249.359 73.918C249.602 74.0047 249.927 74.0827 250.334 74.152C251.036 74.2733 251.582 74.4207 251.972 74.594C252.362 74.7673 252.635 74.9797 252.791 75.231C252.947 75.4823 253.025 75.79 253.025 76.154C253.025 76.5787 252.904 76.9427 252.661 77.246C252.427 77.5407 252.106 77.766 251.699 77.922C251.3 78.078 250.845 78.156 250.334 78.156ZM19.418 98L17.286 91.11H18.482L20.094 96.856L21.732 91.11H22.902L24.54 96.856L26.165 91.11H27.361L25.229 98H23.851L22.317 92.761L20.783 98H19.418ZM31.0396 98.156C30.3896 98.156 29.8263 98.0087 29.3496 97.714C28.8816 97.4193 28.5176 97.0033 28.2576 96.466C28.0063 95.92 27.8806 95.283 27.8806 94.555C27.8806 93.827 28.0063 93.1943 28.2576 92.657C28.5176 92.1197 28.8773 91.7037 29.3366 91.409C29.8046 91.1057 30.3549 90.954 30.9876 90.954C31.5856 90.954 32.1143 91.097 32.5736 91.383C33.0329 91.6603 33.3883 92.0677 33.6396 92.605C33.8996 93.1423 34.0296 93.7967 34.0296 94.568V94.893H29.0246C29.0679 95.6297 29.2629 96.1843 29.6096 96.557C29.9649 96.9297 30.4416 97.116 31.0396 97.116C31.4903 97.116 31.8586 97.012 32.1446 96.804C32.4393 96.5873 32.6429 96.3057 32.7556 95.959L33.9256 96.05C33.7436 96.6653 33.3969 97.1723 32.8856 97.571C32.3829 97.961 31.7676 98.156 31.0396 98.156ZM29.0246 93.931H32.8336C32.7816 93.2637 32.5866 92.774 32.2486 92.462C31.9193 92.15 31.4989 91.994 30.9876 91.994C30.4589 91.994 30.0213 92.1587 29.6746 92.488C29.3366 92.8087 29.1199 93.2897 29.0246 93.931ZM38.1998 98.156C37.5498 98.156 36.9864 98.0087 36.5098 97.714C36.0418 97.4193 35.6778 97.0033 35.4178 96.466C35.1664 95.92 35.0408 95.283 35.0408 94.555C35.0408 93.827 35.1664 93.1943 35.4178 92.657C35.6778 92.1197 36.0374 91.7037 36.4968 91.409C36.9648 91.1057 37.5151 90.954 38.1478 90.954C38.7458 90.954 39.2744 91.097 39.7338 91.383C40.1931 91.6603 40.5484 92.0677 40.7998 92.605C41.0598 93.1423 41.1898 93.7967 41.1898 94.568V94.893H36.1847C36.2281 95.6297 36.4231 96.1843 36.7698 96.557C37.1251 96.9297 37.6018 97.116 38.1998 97.116C38.6504 97.116 39.0188 97.012 39.3048 96.804C39.5994 96.5873 39.8031 96.3057 39.9158 95.959L41.0858 96.05C40.9038 96.6653 40.5571 97.1723 40.0458 97.571C39.5431 97.961 38.9278 98.156 38.1998 98.156ZM36.1847 93.931H39.9938C39.9418 93.2637 39.7468 92.774 39.4088 92.462C39.0794 92.15 38.6591 91.994 38.1478 91.994C37.6191 91.994 37.1814 92.1587 36.8348 92.488C36.4968 92.8087 36.2801 93.2897 36.1847 93.931ZM42.6689 98V88.77H43.7609V94.815L47.1149 91.11H48.5709L45.8539 94.035L48.6879 98H47.3619L45.1129 94.776L43.7609 96.206V98H42.6689ZM53.1189 94.711V93.697H63.7659V94.711H53.1189ZM70.0088 98L67.8768 91.11H69.0728L70.6848 96.856L72.3228 91.11H73.4928L75.1308 96.856L76.7558 91.11H77.9518L75.8198 98H74.4418L72.9078 92.761L71.3738 98H70.0088ZM81.6304 98.156C80.9977 98.156 80.4431 98.0087 79.9664 97.714C79.4897 97.4193 79.1214 97.0033 78.8614 96.466C78.6014 95.92 78.4714 95.283 78.4714 94.555C78.4714 93.8183 78.6014 93.1813 78.8614 92.644C79.1214 92.1067 79.4897 91.6907 79.9664 91.396C80.4431 91.1013 80.9977 90.954 81.6304 90.954C82.2631 90.954 82.8134 91.1013 83.2814 91.396C83.7581 91.6907 84.1264 92.1067 84.3864 92.644C84.6464 93.1813 84.7764 93.8183 84.7764 94.555C84.7764 95.283 84.6464 95.92 84.3864 96.466C84.1264 97.0033 83.7581 97.4193 83.2814 97.714C82.8134 98.0087 82.2631 98.156 81.6304 98.156ZM81.6304 97.116C82.2631 97.116 82.7527 96.8907 83.0994 96.44C83.4547 95.9807 83.6324 95.3523 83.6324 94.555C83.6324 93.7577 83.4547 93.1337 83.0994 92.683C82.7527 92.2237 82.2631 91.994 81.6304 91.994C80.9977 91.994 80.5037 92.2237 80.1484 92.683C79.7931 93.1337 79.6154 93.7577 79.6154 94.555C79.6154 95.3523 79.7931 95.9807 80.1484 96.44C80.5037 96.8907 80.9977 97.116 81.6304 97.116ZM88.5266 98.156C87.8419 98.156 87.2916 97.9263 86.8756 97.467C86.4683 96.999 86.2646 96.3577 86.2646 95.543V91.11H87.3566V95.244C87.3566 95.9113 87.4736 96.4053 87.7076 96.726C87.9503 97.038 88.3186 97.194 88.8126 97.194C89.3586 97.194 89.7876 97.0207 90.0996 96.674C90.4116 96.3187 90.5676 95.8333 90.5676 95.218V91.11H91.6596V98H90.6196V96.297L90.7886 96.388C90.6499 96.9513 90.3856 97.389 89.9956 97.701C89.6056 98.0043 89.1159 98.156 88.5266 98.156ZM95.0941 98C94.6955 98 94.3705 97.896 94.1191 97.688C93.8678 97.48 93.7421 97.1507 93.7421 96.7V88.77H94.8341V96.609C94.8341 96.7477 94.8688 96.856 94.9381 96.934C95.0161 97.0033 95.1245 97.038 95.2631 97.038H95.8611V98H95.0941ZM99.5758 98.156C98.9778 98.156 98.4578 98.0087 98.0158 97.714C97.5825 97.4193 97.2488 97.0033 97.0148 96.466C96.7808 95.9287 96.6638 95.2917 96.6638 94.555C96.6638 93.8183 96.7808 93.1813 97.0148 92.644C97.2488 92.1067 97.5825 91.6907 98.0158 91.396C98.4578 91.1013 98.9778 90.954 99.5758 90.954C100.035 90.954 100.455 91.0537 100.837 91.253C101.218 91.4437 101.504 91.7167 101.695 92.072V88.77H102.787V98H101.799L101.76 96.96C101.569 97.3327 101.279 97.6273 100.889 97.844C100.499 98.052 100.061 98.156 99.5758 98.156ZM99.7968 97.116C100.204 97.116 100.546 97.012 100.824 96.804C101.11 96.596 101.326 96.3013 101.474 95.92C101.621 95.53 101.695 95.075 101.695 94.555C101.695 94.0177 101.621 93.5583 101.474 93.177C101.326 92.7957 101.11 92.5053 100.824 92.306C100.546 92.098 100.204 91.994 99.7968 91.994C99.1901 91.994 98.7048 92.2237 98.3408 92.683C97.9855 93.1337 97.8078 93.7577 97.8078 94.555C97.8078 95.3437 97.9855 95.9677 98.3408 96.427C98.7048 96.8863 99.1901 97.116 99.7968 97.116ZM110.102 98V89.862H107.229V88.77H114.093V89.862H111.22V98H110.102ZM114.893 98V88.77H115.985V92.631L115.855 92.605C115.941 92.2237 116.089 91.9117 116.297 91.669C116.505 91.4263 116.76 91.2487 117.064 91.136C117.367 91.0147 117.701 90.954 118.065 90.954C118.559 90.954 118.975 91.0667 119.313 91.292C119.659 91.5087 119.919 91.8163 120.093 92.215C120.275 92.605 120.366 93.0557 120.366 93.567V98H119.274V93.879C119.274 93.2117 119.152 92.7177 118.91 92.397C118.676 92.0763 118.316 91.916 117.831 91.916C117.276 91.916 116.83 92.085 116.492 92.423C116.154 92.761 115.985 93.2507 115.985 93.892V98H114.893ZM124.518 98.156C123.833 98.156 123.283 97.9263 122.867 97.467C122.459 96.999 122.256 96.3577 122.256 95.543V91.11H123.348V95.244C123.348 95.9113 123.465 96.4053 123.699 96.726C123.941 97.038 124.31 97.194 124.804 97.194C125.35 97.194 125.779 97.0207 126.091 96.674C126.403 96.3187 126.559 95.8333 126.559 95.218V91.11H127.651V98H126.611V96.297L126.78 96.388C126.641 96.9513 126.377 97.389 125.987 97.701C125.597 98.0043 125.107 98.156 124.518 98.156ZM129.733 98V91.11H130.695L130.747 92.852L130.643 92.813C130.73 92.2237 130.916 91.7947 131.202 91.526C131.497 91.2487 131.887 91.11 132.372 91.11H133.048V92.15H132.385C132.039 92.15 131.748 92.215 131.514 92.345C131.289 92.4663 131.116 92.6527 130.994 92.904C130.882 93.1467 130.825 93.4587 130.825 93.84V98H129.733ZM136.648 98.156C136.032 98.156 135.508 98.0563 135.075 97.857C134.65 97.6577 134.316 97.3847 134.074 97.038C133.84 96.6827 133.705 96.2797 133.671 95.829L134.815 95.751C134.884 96.167 135.062 96.5007 135.348 96.752C135.634 96.9947 136.067 97.116 136.648 97.116C137.116 97.116 137.488 97.0423 137.766 96.895C138.052 96.739 138.195 96.492 138.195 96.154C138.195 95.972 138.151 95.8203 138.065 95.699C137.978 95.5777 137.809 95.4737 137.558 95.387C137.306 95.2917 136.934 95.2007 136.44 95.114C135.781 94.9927 135.261 94.8453 134.88 94.672C134.507 94.49 134.238 94.269 134.074 94.009C133.918 93.7403 133.84 93.424 133.84 93.06C133.84 92.4447 134.065 91.942 134.516 91.552C134.966 91.1533 135.608 90.954 136.44 90.954C137.003 90.954 137.475 91.058 137.857 91.266C138.247 91.4653 138.55 91.734 138.767 92.072C138.992 92.4013 139.139 92.7653 139.209 93.164L138.065 93.242C138.013 92.9993 137.917 92.787 137.779 92.605C137.64 92.4143 137.458 92.267 137.233 92.163C137.007 92.0503 136.739 91.994 136.427 91.994C135.933 91.994 135.569 92.0893 135.335 92.28C135.101 92.4707 134.984 92.7133 134.984 93.008C134.984 93.2333 135.036 93.4197 135.14 93.567C135.252 93.7057 135.43 93.8227 135.673 93.918C135.915 94.0047 136.24 94.0827 136.648 94.152C137.35 94.2733 137.896 94.4207 138.286 94.594C138.676 94.7673 138.949 94.9797 139.105 95.231C139.261 95.4823 139.339 95.79 139.339 96.154C139.339 96.5787 139.217 96.9427 138.975 97.246C138.741 97.5407 138.42 97.766 138.013 97.922C137.614 98.078 137.159 98.156 136.648 98.156ZM143.273 98.156C142.675 98.156 142.155 98.0087 141.713 97.714C141.28 97.4193 140.946 97.0033 140.712 96.466C140.478 95.9287 140.361 95.2917 140.361 94.555C140.361 93.8183 140.478 93.1813 140.712 92.644C140.946 92.1067 141.28 91.6907 141.713 91.396C142.155 91.1013 142.675 90.954 143.273 90.954C143.732 90.954 144.153 91.0537 144.534 91.253C144.915 91.4437 145.201 91.7167 145.392 92.072V88.77H146.484V98H145.496L145.457 96.96C145.266 97.3327 144.976 97.6273 144.586 97.844C144.196 98.052 143.758 98.156 143.273 98.156ZM143.494 97.116C143.901 97.116 144.244 97.012 144.521 96.804C144.807 96.596 145.024 96.3013 145.171 95.92C145.318 95.53 145.392 95.075 145.392 94.555C145.392 94.0177 145.318 93.5583 145.171 93.177C145.024 92.7957 144.807 92.5053 144.521 92.306C144.244 92.098 143.901 91.994 143.494 91.994C142.887 91.994 142.402 92.2237 142.038 92.683C141.683 93.1337 141.505 93.7577 141.505 94.555C141.505 95.3437 141.683 95.9677 142.038 96.427C142.402 96.8863 142.887 97.116 143.494 97.116ZM150.293 98.156C149.582 98.156 149.014 97.9913 148.59 97.662C148.174 97.3327 147.966 96.8733 147.966 96.284C147.966 95.6947 148.139 95.231 148.486 94.893C148.832 94.555 149.383 94.3167 150.137 94.178L152.581 93.723C152.581 93.1423 152.442 92.709 152.165 92.423C151.896 92.137 151.489 91.994 150.943 91.994C150.466 91.994 150.089 92.1023 149.812 92.319C149.534 92.527 149.344 92.8303 149.24 93.229L148.083 93.138C148.213 92.488 148.525 91.9637 149.019 91.565C149.521 91.1577 150.163 90.954 150.943 90.954C151.827 90.954 152.503 91.2053 152.971 91.708C153.439 92.202 153.673 92.8867 153.673 93.762V96.609C153.673 96.765 153.699 96.8777 153.751 96.947C153.811 97.0077 153.907 97.038 154.037 97.038H154.31V98C154.275 98.0087 154.219 98.013 154.141 98.013C154.063 98.0217 153.98 98.026 153.894 98.026C153.582 98.026 153.326 97.9783 153.127 97.883C152.936 97.779 152.797 97.623 152.711 97.415C152.624 97.1983 152.581 96.9167 152.581 96.57L152.711 96.596C152.65 96.8907 152.503 97.1593 152.269 97.402C152.035 97.636 151.744 97.8223 151.398 97.961C151.051 98.091 150.683 98.156 150.293 98.156ZM150.397 97.194C150.856 97.194 151.246 97.1073 151.567 96.934C151.896 96.752 152.147 96.5093 152.321 96.206C152.494 95.894 152.581 95.5473 152.581 95.166V94.672L150.345 95.088C149.877 95.1747 149.552 95.309 149.37 95.491C149.196 95.6643 149.11 95.894 149.11 96.18C149.11 96.5007 149.222 96.752 149.448 96.934C149.682 97.1073 149.998 97.194 150.397 97.194ZM155.575 99.95V98.988H156.368C156.611 98.988 156.789 98.949 156.901 98.871C157.023 98.8017 157.114 98.6847 157.174 98.52L157.421 97.87H157.044L154.522 91.11H155.718L157.772 96.856L159.735 91.11H160.931L158.136 98.871C158.006 99.2437 157.811 99.5167 157.551 99.69C157.291 99.8633 156.932 99.95 156.472 99.95H155.575ZM167.368 98.156C166.657 98.156 166.089 97.9913 165.665 97.662C165.249 97.3327 165.041 96.8733 165.041 96.284C165.041 95.6947 165.214 95.231 165.561 94.893C165.907 94.555 166.458 94.3167 167.212 94.178L169.656 93.723C169.656 93.1423 169.517 92.709 169.24 92.423C168.971 92.137 168.564 91.994 168.018 91.994C167.541 91.994 167.164 92.1023 166.887 92.319C166.609 92.527 166.419 92.8303 166.315 93.229L165.158 93.138C165.288 92.488 165.6 91.9637 166.094 91.565C166.596 91.1577 167.238 90.954 168.018 90.954C168.902 90.954 169.578 91.2053 170.046 91.708C170.514 92.202 170.748 92.8867 170.748 93.762V96.609C170.748 96.765 170.774 96.8777 170.826 96.947C170.886 97.0077 170.982 97.038 171.112 97.038H171.385V98C171.35 98.0087 171.294 98.013 171.216 98.013C171.138 98.0217 171.055 98.026 170.969 98.026C170.657 98.026 170.401 97.9783 170.202 97.883C170.011 97.779 169.872 97.623 169.786 97.415C169.699 97.1983 169.656 96.9167 169.656 96.57L169.786 96.596C169.725 96.8907 169.578 97.1593 169.344 97.402C169.11 97.636 168.819 97.8223 168.473 97.961C168.126 98.091 167.758 98.156 167.368 98.156ZM167.472 97.194C167.931 97.194 168.321 97.1073 168.642 96.934C168.971 96.752 169.222 96.5093 169.396 96.206C169.569 95.894 169.656 95.5473 169.656 95.166V94.672L167.42 95.088C166.952 95.1747 166.627 95.309 166.445 95.491C166.271 95.6643 166.185 95.894 166.185 96.18C166.185 96.5007 166.297 96.752 166.523 96.934C166.757 97.1073 167.073 97.194 167.472 97.194ZM174.797 98C174.173 98 173.71 97.857 173.406 97.571C173.112 97.285 172.964 96.8387 172.964 96.232V89.498H174.056V96.206C174.056 96.518 174.126 96.7347 174.264 96.856C174.403 96.9773 174.615 97.038 174.901 97.038H175.889V98H174.797ZM171.95 92.072V91.11H175.889V92.072H171.95ZM182.02 98V91.162H180.096V90.2H180.876C181.214 90.2 181.483 90.1567 181.682 90.07C181.89 89.9833 182.038 89.836 182.124 89.628C182.211 89.42 182.254 89.134 182.254 88.77H183.138V98H182.02ZM188.741 98.208C187.996 98.208 187.35 98.013 186.804 97.623C186.258 97.233 185.834 96.6783 185.53 95.959C185.236 95.2397 185.088 94.386 185.088 93.398C185.088 92.41 185.236 91.5563 185.53 90.837C185.834 90.109 186.258 89.55 186.804 89.16C187.35 88.7613 187.996 88.562 188.741 88.562C189.495 88.562 190.145 88.7613 190.691 89.16C191.237 89.55 191.658 90.1047 191.952 90.824C192.256 91.5433 192.407 92.4013 192.407 93.398C192.407 94.386 192.256 95.2397 191.952 95.959C191.658 96.6783 191.237 97.233 190.691 97.623C190.145 98.013 189.495 98.208 188.741 98.208ZM188.741 97.116C189.539 97.116 190.154 96.7953 190.587 96.154C191.021 95.504 191.237 94.5853 191.237 93.398C191.237 92.6007 191.138 91.9247 190.938 91.37C190.748 90.8067 190.466 90.382 190.093 90.096C189.729 89.8013 189.279 89.654 188.741 89.654C188.213 89.654 187.762 89.8013 187.389 90.096C187.025 90.382 186.744 90.8067 186.544 91.37C186.354 91.9247 186.258 92.6007 186.258 93.398C186.258 94.5853 186.475 95.504 186.908 96.154C187.342 96.7953 187.953 97.116 188.741 97.116ZM196.569 98L199.897 88.77H201.405L204.733 98H203.511L202.588 95.374H198.714L197.791 98H196.569ZM199.091 94.282H202.211L200.651 89.745L199.091 94.282ZM205.934 98V88.77H207.494L210.445 96.778L213.383 88.77H214.943V98H213.825V90.85L211.186 98H209.691L207.052 90.85V98H205.934ZM221.807 98L219.675 91.11H220.871L222.483 96.856L224.121 91.11H225.291L226.929 96.856L228.554 91.11H229.75L227.618 98H226.24L224.706 92.761L223.172 98H221.807ZM233.428 98.156C232.796 98.156 232.241 98.0087 231.764 97.714C231.288 97.4193 230.919 97.0033 230.659 96.466C230.399 95.92 230.269 95.283 230.269 94.555C230.269 93.8183 230.399 93.1813 230.659 92.644C230.919 92.1067 231.288 91.6907 231.764 91.396C232.241 91.1013 232.796 90.954 233.428 90.954C234.061 90.954 234.611 91.1013 235.079 91.396C235.556 91.6907 235.924 92.1067 236.184 92.644C236.444 93.1813 236.574 93.8183 236.574 94.555C236.574 95.283 236.444 95.92 236.184 96.466C235.924 97.0033 235.556 97.4193 235.079 97.714C234.611 98.0087 234.061 98.156 233.428 98.156ZM233.428 97.116C234.061 97.116 234.551 96.8907 234.897 96.44C235.253 95.9807 235.43 95.3523 235.43 94.555C235.43 93.7577 235.253 93.1337 234.897 92.683C234.551 92.2237 234.061 91.994 233.428 91.994C232.796 91.994 232.302 92.2237 231.946 92.683C231.591 93.1337 231.413 93.7577 231.413 94.555C231.413 95.3523 231.591 95.9807 231.946 96.44C232.302 96.8907 232.796 97.116 233.428 97.116ZM238.062 98V91.11H239.024L239.076 92.852L238.972 92.813C239.059 92.2237 239.245 91.7947 239.531 91.526C239.826 91.2487 240.216 91.11 240.701 91.11H241.377V92.15H240.714C240.368 92.15 240.077 92.215 239.843 92.345C239.618 92.4663 239.445 92.6527 239.323 92.904C239.211 93.1467 239.154 93.4587 239.154 93.84V98H238.062ZM242.595 98V88.77H243.687V94.815L247.041 91.11H248.497L245.78 94.035L248.614 98H247.288L245.039 94.776L243.687 96.206V98H242.595ZM251.871 95.387C251.871 94.763 251.966 94.269 252.157 93.905C252.356 93.5323 252.681 93.2073 253.132 92.93C253.47 92.722 253.726 92.54 253.899 92.384C254.081 92.2193 254.202 92.0503 254.263 91.877C254.324 91.695 254.354 91.474 254.354 91.214C254.354 90.7633 254.202 90.3907 253.899 90.096C253.604 89.8013 253.193 89.654 252.664 89.654C252.023 89.654 251.529 89.8187 251.182 90.148C250.844 90.4773 250.64 90.954 250.571 91.578L249.401 91.5C249.453 90.928 249.618 90.421 249.895 89.979C250.172 89.537 250.545 89.1903 251.013 88.939C251.481 88.6877 252.031 88.562 252.664 88.562C253.227 88.562 253.721 88.6747 254.146 88.9C254.579 89.1253 254.917 89.4373 255.16 89.836C255.403 90.2347 255.524 90.694 255.524 91.214C255.524 91.578 255.463 91.8943 255.342 92.163C255.229 92.4317 255.052 92.6787 254.809 92.904C254.566 93.1293 254.259 93.3633 253.886 93.606C253.539 93.8313 253.301 94.0697 253.171 94.321C253.05 94.5723 252.989 94.9277 252.989 95.387H251.871ZM251.663 98V96.531H253.132V98H251.663Z" fill="#101828"/>
</svg>
